HIERARCHY
ROOT Hips
{
  OFFSET 54.6149 99.932 -351.12
  CHANNELS 6 Xposition Yposition Zposition Zrotation Xrotation Yrotation
  JOINT ToSpine
  {
    OFFSET -0.0105055 1.38907 -7.13956
    CHANNELS 3 Zrotation Xrotation Yrotation
    JOINT Spine
    {
      OFFSET 0.0105055 10 1
      CHANNELS 3 Zrotation Xrotation Yrotation
      JOINT Spine1
      {
        OFFSET 0 12 1.60637
        CHANNELS 3 Zrotation Xrotation Yrotation
        JOINT Neck
        {
          OFFSET 0 27 2.26658
          CHANNELS 3 Zrotation Xrotation Yrotation
          JOINT Head
          {
            OFFSET 0 9 2.12705
            CHANNELS 3 Zrotation Xrotation Yrotation
            End Site
            {
              OFFSET 0 11 2
            }
          }
        }
        JOINT LeftShoulder
        {
          OFFSET 8 19.6109 2.86452
          CHANNELS 3 Zrotation Xrotation Yrotation
          JOINT LeftArm
          {
            OFFSET 12 1 0.681055
            CHANNELS 3 Zrotation Xrotation Yrotation
            JOINT LeftForeArm
            {
              OFFSET 19 0 -1.52608
              CHANNELS 3 Zrotation Xrotation Yrotation
              JOINT LeftHand
              {
                OFFSET 23 0 0
                CHANNELS 3 Zrotation Xrotation Yrotation
                End Site
                {
                  OFFSET 10 0 0
                }
              }
            }
          }
        }
        JOINT RightShoulder
        {
          OFFSET -8 19.6109 2.86452
          CHANNELS 3 Zrotation Xrotation Yrotation
          JOINT RightArm
          {
            OFFSET -12 1 0.681055
            CHANNELS 3 Zrotation Xrotation Yrotation
            JOINT RightForeArm
            {
              OFFSET -19 0 -1.52608
              CHANNELS 3 Zrotation Xrotation Yrotation
              JOINT RightHand
              {
                OFFSET -23 0 0
                CHANNELS 3 Zrotation Xrotation Yrotation
                End Site
                {
                  OFFSET -10 0 0
                }
              }
            }
          }
        }
      }
    }
  }
  JOINT LeftUpLeg
  {
    OFFSET 9 -7.17245 0
    CHANNELS 3 Zrotation Xrotation Yrotation
    JOINT LeftLeg
    {
      OFFSET 0 -44.1113 0
      CHANNELS 3 Zrotation Xrotation Yrotation
      JOINT LeftFoot
      {
        OFFSET 0 -36.1829 0
        CHANNELS 3 Zrotation Xrotation Yrotation
        JOINT LeftToeBase
        {
          OFFSET 0 -4.84184 13
          CHANNELS 3 Zrotation Xrotation Yrotation
          End Site
          {
            OFFSET 0 1 6
          }
        }
      }
    }
  }
  JOINT RightUpLeg
  {
    OFFSET -9 -7.17245 0
    CHANNELS 3 Zrotation Xrotation Yrotation
    JOINT RightLeg
    {
      OFFSET 0 -44.0551 0
      CHANNELS 3 Zrotation Xrotation Yrotation
      JOINT RightFoot
      {
        OFFSET 0 -36.1469 0
        CHANNELS 3 Zrotation Xrotation Yrotation
        JOINT RightToeBase
        {
          OFFSET 0 -4.92256 13
          CHANNELS 3 Zrotation Xrotation Yrotation
          End Site
          {
            OFFSET 0 1 6
          }
        }
      }
    }
  }
}
MOTION
Frames:	15
Frame Time:	0.0333333
35.551 94.8759 -1.98925 0.403294 -4.47731 -16.5159 0 0 0 17.1539 7.21438 4.99026 -18.9206 2.71606 9.70007 4.66164 2.69109 -9.23332 5.32116 -5.23632 -8.66109 -36.0235 3.01761 -3.65312 -40.9977 7.74579 9.44932 -2.72714 -21.4876 -0.349661 -10.1021 0.0838461 -0.948612 24.1336 6.43494 17.4668 38.1961 4.60642 15.8021 -2.13062 3.8241 29.154 1.83153 0.0922879 5.76871 -1.55864 -21.8412 0.998047 -1.19388 11.9155 -12.1681 -6.22041 4.31001 0.234302 0.0905096 1.17538 -0.668517 1.78937 20.9698 -8.71533 -0.0514461 14.0258 14.3173 -24.4954 -11.3486 -2.47124 6.45633 -26.0284 -6.14547 
34.6168 95.1239 2.15993 1.69972 -4.72806 -18.1334 0 0 0 15.8373 6.11189 5.42877 -19.8561 2.97869 10.1716 6.91441 1.93382 -9.75567 3.88383 -4.53405 -8.24461 -34.4177 3.07516 -4.084 -42.4838 6.21835 8.7201 -2.25425 -20.9326 0.228988 -11.0413 0.0665993 -0.689046 24.7509 6.37468 16.8873 41.4456 6.84417 14.2031 -1.38513 2.81691 26.1978 1.29721 0.0708794 6.25479 -2.53962 -21.8584 1.14843 -1.79141 16.9263 -11.8188 -3.8101 5.85762 0.195004 0.473988 -0.803082 -1.81548 -0.252156 21.0216 -8.2884 -1.21117 17.4651 15.1111 -23.8367 -7.1571 -1.51251 8.12382 -31.5401 -4.03882 
33.6297 95.5732 6.08667 2.82674 -5.49777 -19.6747 0 0 0 13.1648 5.24613 5.48189 -18.5475 3.57449 9.83223 6.7526 1.64248 -9.41173 3.91117 -3.83558 -7.98242 -34.7815 3.18363 -4.28002 -42.9614 6.33778 7.59686 -2.19776 -19.9508 0.549599 -11.6363 0.18554 -1.82072 23.3817 5.96437 16.4211 45.3013 10.6123 13.437 -1.61292 3.70456 21.94 2.35454 0.0941847 4.58072 -3.30306 -20.7934 3.47696 -1.9539 21.5504 -13.7901 -7.2741 0.196095 0.0124646 -1.01368 7.12109 1.8783 -2.60374 19.1059 -3.72403 -0.718923 25.3622 12.3485 -22.3245 -3.10986 -0.613785 9.01483 -33.7599 -2.51002 
32.6679 96.0676 9.87587 3.31024 -6.37373 -21.2812 0 0 0 11.9671 5.16569 4.94679 -18.6335 3.4609 9.15741 7.10345 1.62285 -8.97893 4.29731 -3.84891 -7.51691 -34.427 3.26097 -4.53936 -43.2576 7.26537 5.67349 -2.42764 -21.8537 0.808645 -10.7001 0.199896 -2.13429 23.7952 5.96192 16.1577 47.8343 15.3817 12.4905 1.26554 -1.56758 16.6623 1.50919 0.0639621 4.85341 -3.74158 -18.1347 5.8394 -1.99894 23.539 -14.8941 -4.73774 -2.3781 -0.0983916 -0.640823 6.23491 0.834224 -4.49408 15.5721 -1.10035 3.61545e-007 36.0693 11.2907 -18.6217 0.556016 0.0911601 7.97985 -29.704 -1.89913 
31.7624 96.6047 13.1682 4.02432 -7.0543 -23.252 0 0 0 9.73825 5.68484 4.28816 -17.6814 2.97751 8.22473 7.30105 0.412745 -8.4261 4.21081 -3.34653 -6.95252 -34.1211 3.29896 -4.69542 -42.7294 6.51438 1.68816 -1.94303 -21.3125 2.66368 -10.399 0.223097 -2.45128 24.5877 6.16538 16.3278 49.4682 16.6095 11.0414 2.44798 -0.861284 12.7593 3.17981 0.140745 5.06744 -4.58403 -15.1358 6.42444 -2.40885 23.377 -13.3788 -3.94387 -4.88409 -0.168263 -0.210345 5.78149 -0.557172 -6.78469 9.91482 -1.44003 1.02973e-007 47.537 13.1081 -19.5941 6.57289 1.13619 5.15676 -20.3995 -6.41314 
30.8561 96.8328 16.1761 4.87923 -8.28185 -25.2156 0 0 0 6.44786 6.50357 3.63419 -15.7615 2.95953 6.99864 6.82523 -0.255206 -7.38257 4.53705 -3.47123 -6.14968 -34.0284 3.47429 -5.14999 -42.1795 7.74694 -1.12533 -2.72289 -24.3092 1.00042 -9.15586 0.152838 -1.90862 24.7907 6.2844 16.5796 50.5565 17.9529 9.71487 3.43519 0.802027 9.13976 3.49219 0.150084 4.92025 -6.16124 -12.0097 5.28985 -3.01304 23.2296 -10.3629 -3.03803 -7.49144 -0.198941 -0.297663 5.81756 -0.259992 -8.63225 4.43385 -0.935596 -6.44011e-007 57.0186 11.1165 -20.3146 8.64195 1.55113 5.25703 -20.7712 -6.14199 
29.9124 96.894 18.9719 5.1836 -8.93543 -27.7444 0 0 0 3.99318 6.94692 3.2515 -14.3905 2.89061 6.06112 8.06916 0.115549 -6.68146 3.16441 -4.6216 -4.781 -33.5899 3.45406 -5.19563 -40.0856 9.82359 -6.32946 -2.69597 -24.4848 2.64464 -9.45481 0.142407 -1.72192 25.878 6.56772 16.7991 51.5676 16.943 6.58352 3.61451 1.13775 7.95507 4.36142 0.161753 4.24589 -6.81962 -9.69726 5.13007 -3.64908 23.6763 -7.72085 -2.61077 -10.0562 -0.229742 -0.179383 5.27631 -0.561494 -9.40039 -1.04213 -0.0875453 -2.08591e-007 63.2557 8.34004 -23.3999 2.16307 0.447999 5.26367 -20.832 -6.24806 
28.8636 96.9642 21.655 4.79511 -8.99161 -30.2668 0 0 0 2.67897 7.72917 2.65047 -13.3831 1.99725 4.99143 9.06344 0.30301 -5.88229 2.40028 -4.96861 -3.53259 -32.8847 3.46164 -5.37313 -37.6645 10.4527 -10.6612 -2.74909 -23.4806 3.22503 -9.0938 0.188982 -2.37604 26.2937 6.52831 16.4354 52.5917 16.4398 4.15818 3.76307 2.99772 6.56554 4.29333 0.120619 3.21706 -6.43076 -7.60813 5.88231 -4.27343 24.1152 -6.21248 -2.06339 -12.4373 -0.22486 -0.436914 5.66092 0.261266 -8.68286 -6.41639 0.110978 -1.00517e-006 65.301 5.54806 -28.925 -1.0584 -0.272988 5.90543 -24.3796 -7.84158 
27.6949 97.1171 24.4476 4.03472 -8.6 -32.7516 0 0 0 1.43481 7.62208 2.01371 -11.3282 1.87622 3.80633 9.16007 0.707791 -4.64038 2.14431 -4.95595 -2.19768 -32.9761 3.52435 -5.51218 -34.5793 10.0458 -14.5201 -2.91942 -23.0127 2.6893 -8.89518 0.185249 -2.38133 25.7274 6.25448 15.9337 53.538 14.9281 1.57545 3.61001 3.44486 5.90481 3.48336 0.104663 3.441 -6.00303 -5.19878 6.05657 -4.46846 23.6712 -4.37375 -1.82845 -15.3524 -0.246463 -0.243414 5.49582 -0.381573 -6.99023 -11.2608 1.03803 -6.25876e-008 63.8717 3.42259 -27.575 -4.24618 -1.04243 5.58849 -22.904 -7.89344 
26.3866 97.3615 27.2845 3.27102 -7.96119 -34.9584 0 0 0 0.859444 7.72861 1.07299 -10.1594 1.21011 2.5707 9.95793 1.24657 -3.76253 1.25635 -4.81959 -0.880958 -31.7991 3.51917 -5.7782 -32.1273 9.63369 -17.1622 -3.20079 -21.8244 1.04456 -8.79649 0.19897 -2.58644 25.9647 6.29446 15.9195 53.5078 13.9957 -1.73554 3.80256 -0.523302 6.93692 3.24859 0.0913869 3.22189 -5.87686 -2.7432 6.22684 -3.44638 22.8289 -3.99982 -3.2963 -17.0723 -0.494894 -0.952275 6.12197 1.9364 -4.92202 -15.5389 2.3325 -1.3828e-007 59.6165 2.27188 -23.5159 -7.99208 -1.6661 4.81275 -18.9033 -6.69822 
24.9098 97.1926 30.1977 2.79217 -7.17092 -37.287 0 0 0 -0.378495 7.39263 0.423954 -8.14698 0.566101 1.52983 10.3207 1.68799 -2.69149 0.748854 -4.35852 0.421523 -30.5548 3.5047 -6.05092 -29.9077 9.54344 -19.088 -3.46032 -20.2367 -0.971564 -8.12571 0.195077 -2.74592 25.3686 6.01367 15.3981 53.3768 12.5957 -4.41584 3.46173 -1.0888 7.78051 3.59878 0.10553 3.3582 -5.81276 -0.336846 7.00782 -3.33666 21.6804 -2.17256 -1.47107 -18.6719 -0.241859 -0.808689 4.76468 1.80648 -2.88 -19.0211 3.08429 -8.2055e-008 52.5093 1.93435 -27.2094 -6.40201 -1.55088 5.80428 -22.885 -5.33982 
23.2769 96.9917 33.1072 2.10411 -6.43898 -38.6482 0 0 0 -1.53981 7.09597 -0.578888 -5.99177 0.464897 0.206451 11.1993 1.49495 -1.77986 -0.679773 -3.85818 1.85374 -28.297 3.49687 -6.64161 -29.3102 7.84186 -20.0685 -3.4992 -18.7692 -3.9304 -7.12983 0.190972 -3.06463 25.2955 5.79794 14.7704 52.3867 12.2265 -6.80861 2.92309 -0.523234 9.85383 3.80009 0.0875323 2.6381 -5.45159 2.50912 7.80562 -3.16537 20.2647 -1.42641 -1.10499 -20.8572 -0.203381 -0.896913 6.71902 1.58884 -1.10837 -20.8604 1.85455 2.39522e-008 43.051 3.31214 -26.5139 -4.39328 -1.03552 5.68649 -22.6312 -6.03265 
21.5835 96.7096 36.0064 1.65998 -5.74835 -39.6332 0 0 0 -2.98352 6.63229 -1.44762 -3.36118 0.563456 -1.03385 11.4338 1.47918 -0.990517 -1.80598 -3.72953 2.92469 -26.601 3.43232 -6.95334 -28.015 6.87652 -22.2967 -3.30456 -17.4531 -4.76617 -7.4682 0.238974 -3.66037 25.3081 5.72072 14.5238 50.9528 10.9379 -8.65449 2.85967 -1.78506 10.2341 4.73002 0.157417 3.81009 -5.48852 5.61192 8.11099 -2.82923 18.0551 -0.872832 -0.585873 -22.0112 -0.113942 -0.671917 6.67758 0.834701 0.221828 -21.838 -1.10416 -2.70799e-008 32.5458 5.15352 -24.8036 -0.999127 -0.219711 5.66775 -22.632 -6.25853 
19.8452 96.4846 38.858 1.47845 -4.65388 -40.5027 0 0 0 -4.32726 6.07608 -2.03881 -0.301467 0.169047 -2.0729 10.8206 2.00738 -0.158564 -2.44083 -3.81328 3.72707 -26.2268 3.40854 -6.99644 -25.0804 7.67675 -24.2494 -3.61707 -17.1328 -6.29932 -7.66249 0.234228 -3.49654 24.6742 5.44919 14.0124 50.3926 8.69586 -11.3687 2.70686 -3.97963 12.0541 3.54414 0.109095 3.5251 -5.51152 8.54664 8.13664 -2.40084 14.9814 0.292174 -0.130457 -22.8762 -0.026395 0.151161 6.32404 -1.91117 1.93212 -22.6084 -3.10986 0.191951 22.2445 3.30409 -20.2591 -0.940177 -0.167975 4.36911 -16.6375 -4.92676 
17.7894 95.6349 41.8832 1.23766 -4.21451 -41.8121 0 0 0 -5.21425 4.97478 -2.14698 1.22933 0.888071 -2.34759 11.1071 1.67818 -0.0464004 -3.67177 -3.50946 4.14077 -25.0332 3.40236 -7.36012 -23.5028 7.48662 -26.2142 -3.66095 -16.2899 -7.42065 -8.74164 0.311807 -4.07774 24.942 5.18564 13.041 49.6074 7.41012 -12.9879 2.60428 -4.52696 12.5243 2.39484 0.0940683 4.49814 -5.74765 12.04 8.87163 -2.90468 12.6276 0.485978 2.60341 -22.7371 0.523538 -0.331836 2.98987 0.528706 3.71475 -22.2638 0.0383855 1.92287 12.4928 -4.80124 -19.7789 1.75724 0.306378 4.72572 -18.2082 -5.14024 
